<mxfile host="app.diagrams.net" agent="Mozilla/5.0 (Windows NT 10.0; Win64; x64; rv:133.0) Gecko/20100101 Firefox/133.0" version="25.0.3">
  <diagram name="Seite-1" id="YdvrPRtwcwbYpdJ6phRB">
    <mxGraphModel dx="1728" dy="952" grid="1" gridSize="10" guides="1" tooltips="1" connect="1" arrows="1" fold="1" page="1" pageScale="1" pageWidth="827" pageHeight="1169" math="0" shadow="0">
      <root>
        <mxCell id="0" />
        <mxCell id="1" parent="0" />
        <mxCell id="DL8iRi0MI_eznyYeciwY-12" value="SERVER" style="rounded=0;whiteSpace=wrap;html=1;strokeColor=#006666;strokeWidth=2;verticalAlign=top;labelPosition=center;verticalLabelPosition=bottom;align=center;fillColor=#E0ECEC;" vertex="1" parent="1">
          <mxGeometry x="280" y="340" width="160" height="100" as="geometry" />
        </mxCell>
        <mxCell id="DL8iRi0MI_eznyYeciwY-11" value="CLIENT" style="rounded=0;whiteSpace=wrap;html=1;strokeColor=#006666;strokeWidth=2;verticalAlign=bottom;labelPosition=center;verticalLabelPosition=top;align=center;fillColor=#E0ECEC;" vertex="1" parent="1">
          <mxGeometry x="130" y="80" width="460" height="200" as="geometry" />
        </mxCell>
        <mxCell id="DL8iRi0MI_eznyYeciwY-1" value="Browser" style="ellipse;whiteSpace=wrap;html=1;strokeColor=#006666;strokeWidth=2;" vertex="1" parent="1">
          <mxGeometry x="280" y="90" width="160" height="50" as="geometry" />
        </mxCell>
        <mxCell id="DL8iRi0MI_eznyYeciwY-2" value="Steuerung&lt;br&gt;(Controller)" style="ellipse;whiteSpace=wrap;html=1;strokeColor=#006666;strokeWidth=2;" vertex="1" parent="1">
          <mxGeometry x="160" y="210" width="120" height="60" as="geometry" />
        </mxCell>
        <mxCell id="DL8iRi0MI_eznyYeciwY-3" value="Sicht&lt;br&gt;(View)" style="ellipse;whiteSpace=wrap;html=1;strokeColor=#006666;strokeWidth=2;" vertex="1" parent="1">
          <mxGeometry x="450" y="210" width="100" height="60" as="geometry" />
        </mxCell>
        <mxCell id="DL8iRi0MI_eznyYeciwY-4" value="Benutzereingaben" style="endArrow=classic;html=1;rounded=0;strokeColor=#006666;strokeWidth=2;align=right;verticalAlign=bottom;labelBackgroundColor=none;" edge="1" parent="1" source="DL8iRi0MI_eznyYeciwY-1" target="DL8iRi0MI_eznyYeciwY-2">
          <mxGeometry width="50" height="50" relative="1" as="geometry">
            <mxPoint x="474.69000000000005" y="175.83002323114317" as="sourcePoint" />
            <mxPoint x="167" y="107" as="targetPoint" />
          </mxGeometry>
        </mxCell>
        <mxCell id="DL8iRi0MI_eznyYeciwY-5" value="anzuzeigende Seite" style="endArrow=classic;html=1;rounded=0;strokeColor=#006666;strokeWidth=2;align=left;verticalAlign=bottom;labelBackgroundColor=none;" edge="1" parent="1" source="DL8iRi0MI_eznyYeciwY-3" target="DL8iRi0MI_eznyYeciwY-1">
          <mxGeometry width="50" height="50" relative="1" as="geometry">
            <mxPoint x="484.69000000000005" y="185.83002323114317" as="sourcePoint" />
            <mxPoint x="177" y="117" as="targetPoint" />
          </mxGeometry>
        </mxCell>
        <mxCell id="DL8iRi0MI_eznyYeciwY-6" value="Benutzeränderungen" style="endArrow=classic;html=1;rounded=0;strokeColor=#006666;strokeWidth=2;verticalAlign=bottom;labelBackgroundColor=none;" edge="1" parent="1" source="DL8iRi0MI_eznyYeciwY-3" target="DL8iRi0MI_eznyYeciwY-2">
          <mxGeometry width="50" height="50" relative="1" as="geometry">
            <mxPoint x="494.69000000000005" y="195.83002323114317" as="sourcePoint" />
            <mxPoint x="187" y="127" as="targetPoint" />
          </mxGeometry>
        </mxCell>
        <mxCell id="DL8iRi0MI_eznyYeciwY-7" value="Modell&lt;br&gt;(Model)" style="ellipse;whiteSpace=wrap;html=1;strokeColor=#006666;strokeWidth=2;" vertex="1" parent="1">
          <mxGeometry x="300" y="365" width="120" height="50" as="geometry" />
        </mxCell>
        <mxCell id="DL8iRi0MI_eznyYeciwY-8" value="Anfrage,&lt;br&gt;Sicht neu zu laden" style="endArrow=classic;html=1;rounded=0;strokeColor=#006666;strokeWidth=2;labelBackgroundColor=none;exitX=0.5;exitY=1;exitDx=0;exitDy=0;entryX=1;entryY=0;entryDx=0;entryDy=0;verticalAlign=middle;spacingLeft=100;spacingBottom=-7;" edge="1" parent="1" source="DL8iRi0MI_eznyYeciwY-3" target="DL8iRi0MI_eznyYeciwY-7">
          <mxGeometry width="50" height="50" relative="1" as="geometry">
            <mxPoint x="372" y="248" as="sourcePoint" />
            <mxPoint x="218" y="271" as="targetPoint" />
          </mxGeometry>
        </mxCell>
        <mxCell id="DL8iRi0MI_eznyYeciwY-9" value="Änderungs-&lt;br&gt;mitteilung" style="endArrow=classic;html=1;rounded=0;strokeColor=#006666;strokeWidth=2;labelBackgroundColor=none;entryX=0;entryY=1;entryDx=0;entryDy=0;verticalAlign=bottom;spacingRight=53;spacingBottom=-3;" edge="1" parent="1" source="DL8iRi0MI_eznyYeciwY-7" target="DL8iRi0MI_eznyYeciwY-3">
          <mxGeometry width="50" height="50" relative="1" as="geometry">
            <mxPoint x="649.9975179114973" y="485.6302001298009" as="sourcePoint" />
            <mxPoint x="739.2268720801268" y="389.995494199864" as="targetPoint" />
          </mxGeometry>
        </mxCell>
        <mxCell id="DL8iRi0MI_eznyYeciwY-10" value="Anfrage, &lt;br&gt;Sicht zu aktualisieren" style="endArrow=classic;html=1;rounded=0;strokeColor=#006666;strokeWidth=2;labelBackgroundColor=none;align=center;verticalAlign=bottom;spacingRight=130;spacingTop=0;spacingBottom=-7;" edge="1" parent="1" source="DL8iRi0MI_eznyYeciwY-2" target="DL8iRi0MI_eznyYeciwY-7">
          <mxGeometry width="50" height="50" relative="1" as="geometry">
            <mxPoint x="40" y="380" as="sourcePoint" />
            <mxPoint x="238" y="291" as="targetPoint" />
          </mxGeometry>
        </mxCell>
      </root>
    </mxGraphModel>
  </diagram>
</mxfile>
